<svg width="48" height="48" viewBox="0 0 48 48" fill="none" xmlns="http://www.w3.org/2000/svg">
<g filter="url(#filter0_d_938_2700)">
<path d="M35.107 14.0746C33.0084 13.0927 30.7883 12.395 28.5052 12C28.2209 12.5141 27.8886 13.2056 27.6595 13.7557C25.198 13.3856 22.7591 13.3856 20.3429 13.7557C20.1139 13.2057 19.7741 12.5141 19.4871 12C17.2019 12.3952 14.9798 13.0947 12.8802 14.0798C8.70224 20.3934 7.56962 26.55 8.13587 32.6195C10.907 34.6889 13.5925 35.946 16.2327 36.7686C16.8889 35.8663 17.4689 34.9109 17.9669 33.9125C17.0189 33.5516 16.105 33.1068 15.2361 32.5835C15.4648 32.414 15.6881 32.2374 15.9056 32.0539C21.1709 34.5166 26.8919 34.5166 32.0944 32.0539C32.3129 32.2362 32.5361 32.4128 32.7637 32.5835C31.8934 33.1082 30.9779 33.5539 30.028 33.9151C30.5287 34.9176 31.1077 35.8739 31.7621 36.7711C34.4049 35.9486 37.0929 34.6915 39.864 32.6195C40.5285 25.5835 38.729 19.4833 35.107 14.0745V14.0746ZM18.6842 28.8869C17.1036 28.8869 15.8074 27.4113 15.8074 25.6144C15.8074 23.8175 17.076 22.3394 18.6842 22.3394C20.2926 22.3394 21.5887 23.8149 21.5611 25.6144C21.5636 27.4113 20.2926 28.8869 18.6842 28.8869ZM29.3156 28.8869C27.735 28.8869 26.4389 27.4113 26.4389 25.6144C26.4389 23.8175 27.7074 22.3394 29.3156 22.3394C30.924 22.3394 32.2201 23.8149 32.1925 25.6144C32.1925 27.4113 30.924 28.8869 29.3156 28.8869V28.8869Z" fill="#5865F2"/>
<path d="M30.7251 34.1754C31.518 33.8445 32.2857 33.4556 33.0219 33.0117L33.6573 32.6286L33.0637 32.1835C32.843 32.0179 32.6265 31.8467 32.4147 31.6699L32.1693 31.4652L31.8804 31.602C26.8142 34.0002 21.2493 34.0013 16.1175 31.601L15.8277 31.4655L15.5832 31.6717C15.3737 31.8484 15.1586 32.0186 14.9384 32.1818L14.3384 32.6265L14.9781 33.0118C15.7129 33.4544 16.4789 33.8423 17.27 34.1727C16.8997 34.8663 16.4881 35.5372 16.0373 36.1816C13.6144 35.392 11.1521 34.217 8.61379 32.3513C8.10844 26.4963 9.22333 20.5664 13.2198 14.4732C15.1331 13.5883 17.1485 12.9445 19.2198 12.5562C19.4551 13.0025 19.7038 13.5216 19.8813 13.9479L20.0317 14.3092L20.4186 14.25C22.7842 13.8876 25.1725 13.8874 27.5851 14.2502L27.971 14.3082L28.1211 13.948C28.2993 13.52 28.543 13.0016 28.7744 12.5566C30.8434 12.9447 32.8569 13.5869 34.769 14.4689C38.2421 19.7032 39.9768 25.5818 39.3863 32.3513C36.8476 34.2195 34.3829 35.3947 31.9572 36.1843C31.5078 35.5429 31.0967 34.8717 30.7251 34.1754ZM15.3074 25.6144C15.3074 27.6248 16.7688 29.3869 18.6842 29.3869C20.6284 29.3869 22.0619 27.6245 22.0611 25.6179C22.0901 23.5966 20.623 21.8394 18.6842 21.8394C16.7378 21.8394 15.3074 23.6078 15.3074 25.6144ZM25.9389 25.6144C25.9389 27.6248 27.4001 29.3869 29.3156 29.3869C31.2605 29.3869 32.6907 27.6237 32.6925 25.6182C32.7216 23.5968 31.2545 21.8394 29.3156 21.8394C27.3692 21.8394 25.9389 23.6078 25.9389 25.6144Z" stroke="black"/>
</g>
<defs>
<filter id="filter0_d_938_2700" x="6" y="12" width="36" height="34.7715" filterUnits="userSpaceOnUse" color-interpolation-filters="sRGB">
<feFlood flood-opacity="0" result="BackgroundImageFix"/>
<feColorMatrix in="SourceAlpha" type="matrix" values="0 0 0 0 0 0 0 0 0 0 0 0 0 0 0 0 0 0 127 0" result="hardAlpha"/>
<feOffset dy="8"/>
<feGaussianBlur stdDeviation="1"/>
<feComposite in2="hardAlpha" operator="out"/>
<feColorMatrix type="matrix" values="0 0 0 0 0 0 0 0 0 0 0 0 0 0 0 0 0 0 0.25 0"/>
<feBlend mode="normal" in2="BackgroundImageFix" result="effect1_dropShadow_938_2700"/>
<feBlend mode="normal" in="SourceGraphic" in2="effect1_dropShadow_938_2700" result="shape"/>
</filter>
</defs>
</svg>
