<svg width="32" height="25" viewBox="0 0 32 25" fill="none" xmlns="http://www.w3.org/2000/svg">
<path d="M27.107 2.07463C25.0084 1.09271 22.7883 0.395025 20.5052 0C20.2209 0.514125 19.8886 1.20562 19.6595 1.75575C17.198 1.38562 14.7591 1.38562 12.3429 1.75575C12.1139 1.20575 11.7741 0.514125 11.4871 0C9.20186 0.395207 6.97982 1.09467 4.88024 2.07975C0.702241 8.39337 -0.430384 14.55 0.135866 20.6195C2.90699 22.6889 5.59249 23.946 8.23274 24.7686C8.88891 23.8663 9.46895 22.9109 9.96687 21.9125C9.0189 21.5516 8.10503 21.1068 7.23612 20.5835C7.46478 20.414 7.68806 20.2374 7.90562 20.0539C13.1709 22.5166 18.8919 22.5166 24.0944 20.0539C24.3129 20.2362 24.5361 20.4128 24.7637 20.5835C23.8934 21.1082 22.9779 21.5539 22.028 21.9151C22.5287 22.9176 23.1077 23.8739 23.7621 24.7711C26.4049 23.9486 29.0929 22.6915 31.864 20.6195C32.5285 13.5835 30.729 7.48325 27.107 2.0745V2.07463ZM10.6842 16.8869C9.10362 16.8869 7.80737 15.4113 7.80737 13.6144C7.80737 11.8175 9.07599 10.3394 10.6842 10.3394C12.2926 10.3394 13.5887 11.8149 13.5611 13.6144C13.5636 15.4113 12.2926 16.8869 10.6842 16.8869ZM21.3156 16.8869C19.735 16.8869 18.4389 15.4113 18.4389 13.6144C18.4389 11.8175 19.7074 10.3394 21.3156 10.3394C22.924 10.3394 24.2201 11.8149 24.1925 13.6144C24.1925 15.4113 22.924 16.8869 21.3156 16.8869V16.8869Z" fill="#5865F2"/>
</svg>
