<svg width="33" height="27" viewBox="0 0 33 27" fill="none" xmlns="http://www.w3.org/2000/svg">
<mask id="path-1-inside-1_927_315" fill="white">
<path d="M32.8047 3.98377C31.6272 4.5059 30.3619 4.85877 29.0339 5.01752C30.3896 4.20502 31.4304 2.9184 31.9206 1.3854C30.6319 2.15013 29.2219 2.68893 27.7517 2.97852C26.5541 1.70265 24.8479 0.905273 22.9596 0.905273C19.3338 0.905273 16.3942 3.84477 16.3942 7.47027C16.3942 7.9849 16.4523 8.4859 16.5642 8.96652C11.1079 8.69265 6.27044 6.07902 3.03231 2.10702C2.46731 3.07665 2.14356 4.20452 2.14356 5.40752C2.14356 7.68527 3.30269 9.69465 5.06419 10.872C4.02162 10.8394 3.002 10.5578 2.09044 10.0508C2.09006 10.0783 2.09006 10.1058 2.09006 10.1334C2.09006 13.3143 4.35306 15.9678 7.35631 16.5709C6.38955 16.8338 5.37547 16.8723 4.39156 16.6834C5.22694 19.2916 7.65156 21.1896 10.5243 21.2428C8.27744 23.0035 5.44656 24.0531 2.37081 24.0531C1.84081 24.0531 1.31831 24.022 0.804687 23.9614C3.71006 25.8241 7.16094 26.911 10.8684 26.911C22.9443 26.911 29.5477 16.9071 29.5477 8.23165C29.5477 7.9469 29.5414 7.66377 29.5287 7.38227C30.814 6.45313 31.9233 5.30229 32.8047 3.98377"/>
</mask>
<path d="M32.8047 3.98377C31.6272 4.5059 30.3619 4.85877 29.0339 5.01752C30.3896 4.20502 31.4304 2.9184 31.9206 1.3854C30.6319 2.15013 29.2219 2.68893 27.7517 2.97852C26.5541 1.70265 24.8479 0.905273 22.9596 0.905273C19.3338 0.905273 16.3942 3.84477 16.3942 7.47027C16.3942 7.9849 16.4523 8.4859 16.5642 8.96652C11.1079 8.69265 6.27044 6.07902 3.03231 2.10702C2.46731 3.07665 2.14356 4.20452 2.14356 5.40752C2.14356 7.68527 3.30269 9.69465 5.06419 10.872C4.02162 10.8394 3.002 10.5578 2.09044 10.0508C2.09006 10.0783 2.09006 10.1058 2.09006 10.1334C2.09006 13.3143 4.35306 15.9678 7.35631 16.5709C6.38955 16.8338 5.37547 16.8723 4.39156 16.6834C5.22694 19.2916 7.65156 21.1896 10.5243 21.2428C8.27744 23.0035 5.44656 24.0531 2.37081 24.0531C1.84081 24.0531 1.31831 24.022 0.804687 23.9614C3.71006 25.8241 7.16094 26.911 10.8684 26.911C22.9443 26.911 29.5477 16.9071 29.5477 8.23165C29.5477 7.9469 29.5414 7.66377 29.5287 7.38227C30.814 6.45313 31.9233 5.30229 32.8047 3.98377" fill="#55ACEE"/>
<path d="M29.0339 5.01752L28.0058 3.30205L29.2713 7.00339L29.0339 5.01752ZM31.9206 1.3854L33.8256 1.99446L35.4296 -3.02257L30.8999 -0.33456L31.9206 1.3854ZM27.7517 2.97852L26.2935 4.34731L27.0515 5.15487L28.1382 4.94082L27.7517 2.97852ZM16.5642 8.96652L16.4639 10.964L19.1136 11.097L18.5121 8.5131L16.5642 8.96652ZM3.03231 2.10702L4.58246 0.843283L2.75799 -1.39468L1.30428 1.1001L3.03231 2.10702ZM5.06419 10.872L5.00158 12.871L11.9811 13.0896L6.17557 9.20925L5.06419 10.872ZM2.09044 10.0508L3.06259 8.30294L0.13628 6.67532L0.0906234 10.0235L2.09044 10.0508ZM7.35631 16.5709L7.88117 18.5008L7.7501 14.61L7.35631 16.5709ZM4.39156 16.6834L4.76866 14.7193L1.45889 14.0838L2.48687 17.2934L4.39156 16.6834ZM10.5243 21.2428L11.7579 22.817L16.1858 19.3471L10.5613 19.2431L10.5243 21.2428ZM0.804687 23.9614L1.03913 21.9752L-0.27478 25.6451L0.804687 23.9614ZM29.5287 7.38227L28.357 5.76144L27.4819 6.39406L27.5307 7.47277L29.5287 7.38227ZM31.994 2.15545C30.9974 2.59736 29.9253 2.89673 28.7965 3.03166L29.2713 7.00339C30.7986 6.82082 32.257 6.41444 33.6154 5.81209L31.994 2.15545ZM30.0621 6.733C31.8258 5.67593 33.1842 4.00048 33.8256 1.99446L30.0156 0.776337C29.6767 1.83632 28.9533 2.73412 28.0058 3.30205L30.0621 6.733ZM30.8999 -0.33456C29.8072 0.313844 28.6118 0.770686 27.3652 1.01623L28.1382 4.94082C29.8321 4.60718 31.4565 3.98642 32.9412 3.10536L30.8999 -0.33456ZM29.2099 1.60973C27.6492 -0.0529431 25.4218 -1.09473 22.9596 -1.09473V2.90527C24.2741 2.90527 25.4589 3.45824 26.2935 4.34731L29.2099 1.60973ZM22.9596 -1.09473C18.2293 -1.09473 14.3942 2.7401 14.3942 7.47027L18.3942 7.47027C18.3942 4.94944 20.4383 2.90527 22.9596 2.90527V-1.09473ZM14.3942 7.47027C14.3942 8.13585 14.4694 8.78903 14.6163 9.41994L18.5121 8.5131C18.4352 8.18276 18.3942 7.83394 18.3942 7.47027L14.3942 7.47027ZM16.6645 6.96904C11.7956 6.72465 7.47711 4.39396 4.58246 0.843283L1.48216 3.37076C5.06376 7.76408 10.4202 10.6606 16.4639 10.964L16.6645 6.96904ZM1.30428 1.1001C0.56599 2.36711 0.143563 3.84126 0.143563 5.40752H4.14356C4.14356 4.56779 4.36863 3.78618 4.76035 3.11395L1.30428 1.1001ZM0.143563 5.40752C0.143563 8.37972 1.65852 11.0013 3.9528 12.5348L6.17557 9.20925C4.94685 8.38798 4.14356 6.99083 4.14356 5.40752H0.143563ZM5.12679 8.873C4.40311 8.85034 3.69534 8.65488 3.06259 8.30294L1.11829 11.7986C2.30866 12.4607 3.64014 12.8284 5.00158 12.871L5.12679 8.873ZM0.0906234 10.0235C0.0900315 10.0669 0.0900625 10.1081 0.0900625 10.1334H4.09006C4.09006 10.1035 4.09009 10.0896 4.09025 10.078L0.0906234 10.0235ZM0.0900625 10.1334C0.0900625 14.2856 3.04348 17.7447 6.96253 18.5317L7.7501 14.61C5.66265 14.1908 4.09006 12.3429 4.09006 10.1334H0.0900625ZM6.83145 14.641C6.1588 14.8239 5.45324 14.8507 4.76866 14.7193L4.01446 18.6475C5.29771 18.8939 6.62029 18.8437 7.88117 18.5008L6.83145 14.641ZM2.48687 17.2934C3.57651 20.6956 6.7367 23.1731 10.4873 23.2424L10.5613 19.2431C8.56643 19.2062 6.87736 17.8877 6.29625 16.0734L2.48687 17.2934ZM9.29069 19.6686C7.38334 21.1632 4.98369 22.0531 2.37081 22.0531V26.0531C5.90944 26.0531 9.17153 24.8438 11.7579 22.817L9.29069 19.6686ZM2.37081 22.0531C1.91921 22.0531 1.47499 22.0266 1.03913 21.9752L0.570248 25.9476C1.16163 26.0174 1.76241 26.0531 2.37081 26.0531V22.0531ZM-0.27478 25.6451C2.94052 27.7065 6.76399 28.911 10.8684 28.911V24.911C7.55788 24.911 4.47961 23.9418 1.88416 22.2777L-0.27478 25.6451ZM10.8684 28.911C24.2786 28.911 31.5477 17.7671 31.5477 8.23165H27.5477C27.5477 16.0472 21.61 24.911 10.8684 24.911V28.911ZM31.5477 8.23165C31.5477 7.91764 31.5408 7.60433 31.5266 7.29178L27.5307 7.47277C27.5421 7.72322 27.5477 7.97616 27.5477 8.23165H31.5477ZM30.7004 9.00311C32.1783 7.9347 33.454 6.61136 34.4674 5.09522L31.142 2.87233C30.3927 3.99322 29.4496 4.97156 28.357 5.76144L30.7004 9.00311Z" fill="black" mask="url(#path-1-inside-1_927_315)"/>
</svg>
